<?xml version="1.0" encoding="utf-8" ?>
<svg xmlns="http://www.w3.org/2000/svg" xmlns:xlink="http://www.w3.org/1999/xlink" width="512" height="512">
	<path transform="scale(0.5 0.5)" d="M549.118 117.248C597.724 116.947 646.375 117.43 694.986 117.512C711.619 117.54 728.253 117.486 744.886 117.455C754.064 117.438 763.434 117.073 772.589 117.587C777.869 117.884 783.011 118.765 787.983 120.591C801.781 125.66 811.816 136.177 817.78 149.384C820.49 155.387 821.624 162.454 821.855 169C822.281 181.081 821.839 193.324 821.843 205.424C821.851 230.581 821.849 255.739 821.815 280.896C821.725 348.265 821.918 415.632 821.856 483C821.807 535.565 821.779 588.13 821.867 640.694C821.905 663.473 821.903 686.225 821.559 709C821.436 717.197 821.786 725.507 821.32 733.685C821.071 738.06 820.098 741.734 818.523 745.811C812.918 760.319 804.182 767.897 790.25 774.199C788.449 775.014 786.076 775.982 784.539 777.219C780.302 780.632 777.072 789.061 775.159 794.1C770.557 806.22 769.181 819.601 769.69 832.5C769.891 837.609 770.236 843.743 772.419 848.484L775.927 856.5C780.33 865.293 786.562 871.413 796 874.406C799.425 875.492 801.894 876.065 804.537 878.619C807.906 881.875 809.939 886.309 809.955 891.005C809.969 895.233 808.021 899.554 804.946 902.454C802.662 904.608 799.862 906.008 796.732 906.325C788.551 907.154 779.458 906.093 771.183 906.07C751.073 906.012 730.962 906.128 710.851 906.096C646.638 905.994 582.42 905.977 518.207 906.077L289.633 906.339C267.916 906.626 245.084 899.432 229.271 884.034C213.42 868.6 203.154 849.071 203.128 826.5C203.114 814.573 206.141 802.239 211.32 791.523C212.436 789.214 215.437 785.797 216.008 783.598C216.562 781.46 216.078 777.764 216.073 775.456C215.796 641.673 216.252 507.888 216.062 374.104C216.003 332.633 215.959 291.161 215.944 249.69C215.939 237.293 215.941 224.897 215.963 212.5C215.978 204.437 215.606 196.149 216.679 188.141C218.902 171.556 228.789 154.597 240.392 142.837C252.112 130.957 267.312 122.52 283.638 119.078C295.276 116.624 307.847 117.4 319.686 117.416C334.381 117.436 349.075 117.489 363.769 117.463C425.552 117.352 487.335 117.669 549.118 117.248Z"/>
	<path fill="#FE4917" transform="scale(0.5 0.5)" d="M294.116 150.25L295.506 150.079L296.25 150.707L296.434 747.755C278.685 746.484 263.482 745.885 247.838 755.75C246.874 756.33 247.41 756.134 246.214 756.292C245.314 751.336 245.916 745.366 245.924 740.306C245.939 729.84 245.946 719.374 245.951 708.908C245.971 667.91 246.119 626.927 246.08 585.928C246.042 546.161 246.446 506.399 246.43 466.636C246.41 417.591 245.937 368.54 246.035 319.491C246.091 291.37 245.755 263.252 245.856 235.131C245.897 223.788 245.34 212.115 246.026 200.824C246.541 192.338 250.762 182.667 255.349 175.59C261.083 166.744 270.098 158.577 279.81 154.389C284.415 152.402 289.233 151.312 294.116 150.25Z"/>
	<path fill="#3C76A3" transform="scale(0.5 0.5)" d="M280.579 780.229L749.34 780.544C745.763 786.176 743.406 792.327 741.685 798.754C734.964 823.844 737.481 850.842 750.501 873.514L716.25 872.937C684.994 872.785 653.75 873.348 622.5 873.285C553.042 873.146 483.585 872.679 414.125 872.886C383.466 872.977 352.81 872.773 322.152 872.815C312.935 872.827 303.717 872.927 294.5 872.965C288.079 872.992 281.442 873.218 275.074 872.303C266.446 871.063 258.614 866.587 252.071 860.991C242.096 852.463 236.148 840.696 235.276 827.631C234.489 815.847 238.541 805.526 246.332 796.802C255.369 786.684 267.108 780.986 280.579 780.229Z"/>
	<path transform="scale(0.5 0.5)" d="M345.734 810.658C351.345 810.186 357.205 810.483 362.842 810.458C373.869 810.409 384.894 810.419 395.92 810.44C427.524 810.499 459.128 810.506 490.732 810.522C533.266 810.543 575.798 810.786 618.332 810.63C635.308 810.568 652.284 810.753 669.26 810.725C678.048 810.71 686.989 810.157 695.75 810.518C697.828 810.604 699.843 811.241 701.681 812.202C705.592 814.248 709.103 818.282 710.387 822.53C711.686 826.83 711.662 831.316 709.364 835.273C706.464 840.267 701.491 842.354 696.174 843.695C691.955 844.242 687.508 843.997 683.255 844.004C676.103 844.015 668.954 843.978 661.803 843.868C643.374 843.583 624.947 843.427 606.516 843.62C552.275 844.188 498.052 843.577 443.814 843.581C420.953 843.583 398.097 843.586 375.236 843.511C366.889 843.483 358.375 844.095 350.062 843.744C346.225 843.581 343.069 843.089 339.641 841.21C335.674 839.036 332.455 835.803 331.308 831.324C330.31 827.423 330.902 822.321 333.031 818.917C336.011 814.153 340.433 811.888 345.734 810.658Z"/>
	<path fill="#FEB927" transform="scale(0.5 0.5)" d="M327.023 149.75C328.768 149.253 331.138 149.569 332.965 149.594C336.833 149.648 340.701 149.698 344.57 149.713C360.239 149.777 375.912 149.809 391.581 149.763C483.492 149.493 575.435 149.311 667.344 149.575C690.678 149.643 714.01 149.56 737.344 149.524C748.754 149.507 760.875 148.687 772.208 149.655C774.645 149.864 776.948 150.393 779.138 151.511C784.41 154.203 787.818 159.142 789.463 164.737L789.672 165.476L790.232 167.735C791.039 172.325 790.59 177.626 790.618 182.32C790.677 192.546 790.659 202.774 790.737 213C791.048 253.675 790.953 294.329 791.015 335.002C791.139 417.468 790.799 499.934 790.884 582.4C790.917 614.02 790.754 645.631 790.7 677.25C790.671 693.858 791.272 710.543 790.487 727.141C790.233 732.505 788.753 736.304 785.691 740.613C782.384 744.076 778.863 746.201 774.097 746.988L773.25 747.12C768.814 747.849 764.163 747.581 759.673 747.561C752.364 747.529 745.053 747.482 737.745 747.57C704.841 747.967 671.951 748.015 639.046 748.041C573.174 748.093 507.302 748.064 441.43 748.07C403.291 748.074 365.136 748.367 327.001 747.975L327.023 149.75Z"/>
	<path transform="scale(0.5 0.5)" d="M536.097 284.233C542.906 284.173 549.717 284.153 556.526 284.136C561.982 284.123 567.708 283.728 572.969 285.423C588.702 290.491 587.064 314.446 593.563 326.801C597.345 328.61 601.486 329.756 605.49 330.981C606.95 331.427 609.182 332.37 610.691 332.451C613.318 332.593 619.621 329.129 622.117 328.066C629.098 325.094 636.18 321.884 643.485 319.803C648.483 318.379 652.464 318.85 657 321.474C661.161 323.881 664.793 327.782 668.22 331.115C673.612 336.358 681.312 342.635 683.08 350.234C685.058 358.735 671.413 379.973 666.647 387.973L676.493 409.127L693.5 414.007C700.127 416.134 710.817 419.175 714.053 426.07C716.514 431.312 715.53 439.947 715.545 445.714C715.564 453.038 716.943 464.193 713.981 470.906C712.941 473.262 710.852 475.299 708.731 476.707C704.503 479.512 699.533 481.242 694.783 482.925C688.452 485.168 682.065 487.258 675.728 489.489L666.102 512.465L676.75 528.448C679.49 532.779 685.699 542.816 684.177 548.1C682.864 552.661 678.15 557.471 675.195 561.125C670.071 567.461 663.393 577.788 655.847 581.175C654.096 581.961 652.08 582.473 650.153 582.381C646.11 582.186 641.974 580.514 638.211 579.148C629.534 575.998 621.231 571.94 612.554 568.779C608.179 570.095 604.104 572.249 599.701 573.554C598.391 573.942 593.655 574.648 592.846 575.357C592.248 575.881 591.329 578.732 590.936 579.628C588.449 585.297 586.062 591.003 583.807 596.769C582.095 601.148 580.583 605.827 577.931 609.74C575.547 613.258 573.087 614.612 569.004 615.422C560.785 615.031 552.566 615.055 544.34 614.987C539.518 614.947 532.133 615.736 527.687 613.829C513.299 607.657 510.525 588.001 505.464 574.737C502.047 574.004 498.498 573.277 495.25 571.956C493.876 571.397 491.521 569.79 490.15 569.67C487.045 569.398 464.519 579.834 459.425 581.526C454.786 583.068 450.211 582.6 445.896 580.337C437.158 575.754 429.72 565.589 423.853 557.754C421.833 555.056 419.029 551.804 418.123 548.5C416.342 542.006 425.166 530.569 428.519 525C430.952 520.96 433.265 516.844 435.595 512.744C433.429 508.462 431.335 504.163 429.538 499.709C428.335 496.726 427.409 493.644 426.265 490.64C426.078 490.148 425.756 488.818 425.442 488.502C424.737 487.789 422.102 487.23 421.085 486.932C411.045 483.994 396.911 482.172 390.29 473.209C388.996 471.458 388.125 469.512 387.712 467.372C386.426 460.703 387.263 452.845 387.233 446.005C387.212 441.071 386.511 435.609 387.334 430.74L387.473 430C389.093 420.892 396.963 418.536 404.584 415.83C409.173 414.2 413.788 412.639 418.331 410.882C420.056 410.214 423.004 409.271 424.424 408.084C425.564 407.131 426.832 402.769 427.46 401.276C429.479 396.475 432.243 392.164 435.025 387.784L421.572 360.945C419.804 357.101 417.347 352.502 419.1 348.25C421.175 343.219 426.527 339.159 430.369 335.439C435.771 330.211 441.853 322.82 448.802 319.894C455.973 316.874 466.924 322.404 473.75 324.918C479.895 327.182 486.028 329.334 492.077 331.86C496.133 330.067 500.21 328.321 504.248 326.488C505.275 326.022 507.133 325.469 507.877 324.718C508.709 323.879 509.268 320.928 509.623 319.765C512.465 310.458 514.207 297.593 520.951 290.204C525.309 285.428 529.987 284.591 536.097 284.233Z"/>
	<path fill="#FE861D" transform="scale(0.5 0.5)" d="M544.031 316.75C547.974 316.07 553.336 316.769 557.441 316.787C560.432 327.636 562.567 340.797 568.424 350.399C573.99 354.06 581.314 355.514 587.5 358.008C591.279 359.532 594.755 361.376 598.316 363.345C599.9 364.221 602.242 365.821 603.95 366.294C605.315 366.672 608.707 365.805 610.199 365.467C615.517 364.265 620.713 362.524 625.864 360.754C630.877 359.032 635.854 357.181 640.913 355.594C642.743 355.02 644.993 354.103 646.893 354.681C647.731 354.936 647.716 355.297 648.122 356C645.788 367.959 635.949 377.175 632.757 388.844C631.541 393.288 638.1 401.956 640.246 406.042C641.836 409.068 643.204 412.155 644.153 415.444C645.562 420.329 645.956 426.629 649.217 430.659C654.019 436.591 663.837 438.476 670.75 441.027C674.566 442.436 678.253 444.149 681.834 446.077C683.671 447.066 686.038 448.156 687.096 450C684.377 454.293 655.926 460.741 649.384 467.862C647.17 470.273 646.43 473.787 645.596 476.856C644.47 480.997 643.369 485.17 641.756 489.154C639.386 495.012 635.793 499.577 632.737 504.998C631.753 506.744 631.136 508.307 631.451 510.34C631.892 513.195 633.85 516.596 635.225 519.116C638.404 524.944 641.989 530.563 645.345 536.29C646.394 538.08 648.298 540.669 648.579 542.75C648.783 544.259 648.369 544.652 647.504 545.75C643.115 547.435 636.123 542.775 631.864 541.182C624.835 538.554 610.866 533.594 603.413 535.901C599.055 537.249 594.966 539.963 590.721 541.727C585.182 544.029 579.346 545.637 573.894 548.123C571.925 549.021 570.06 549.939 568.694 551.674C566.185 554.86 564.984 559.669 563.696 563.467C561.883 568.812 560.004 574.108 558.018 579.391L556.037 584.018C553.887 583.882 543.031 583.402 542.075 582.366C541.581 581.831 540.889 578.752 540.629 577.894C538.213 569.938 536.022 557.269 529.762 551.412C525.272 547.211 517.406 545.768 511.75 543.516C507.181 541.696 502.787 539.213 498.126 537.661C487.478 534.117 476.092 540.274 466.323 544.331C462.866 545.766 459.024 547.738 455.25 547.926L454.522 546.75C454.426 545.555 454.314 544.245 454.683 543.086C455.535 540.412 457.475 537.592 458.839 535.133C462.461 528.602 466.761 521.775 469.145 514.693C469.803 512.737 469.735 511.145 469.123 509.188C467.123 502.797 462.64 496.561 459.885 490.378C456.842 483.548 454.937 475.826 451.447 469.259C446.892 460.688 431.906 457.769 423.5 455.027C420.99 454.207 418.219 453.335 417.042 450.753C416.393 449.329 415.967 447.541 416.56 446.053C419.062 444.25 422.214 443.258 425.098 442.216C429.825 440.508 434.608 438.949 439.315 437.184C443.142 435.75 447.531 434.068 450.011 430.641C451.597 428.449 452.283 425.533 453.037 422.963C454.172 419.093 455.3 415.26 456.976 411.581C459.908 405.144 464.647 399.689 467.497 393.293C467.772 392.676 468.229 391.893 468.359 391.247C469.336 386.41 461.005 371.718 458.718 366.863C457.045 363.311 455.502 359.659 454.076 356L454.5 355.057C457.243 353.93 461.207 355.656 464 356.458C469.993 358.18 475.942 360.026 481.895 361.881C486.515 363.321 492.089 365.38 497.003 364.909C502.457 364.386 505.879 360.337 510.512 358.053C513.282 356.687 516.578 355.984 519.502 354.959C523.895 353.419 528.746 351.491 531.9 347.922C534.731 344.719 535.812 340.101 537.116 336.119C539.211 329.717 541.127 322.814 544.031 316.75Z"/>
	<path transform="scale(0.5 0.5)" d="M546.855 378.215C565.057 377.378 583.392 383.994 597.432 395.58C612.47 407.989 621.359 424.629 623.061 444.051C624.709 462.86 619.287 482.625 606.989 497.074C593.27 513.192 574.787 522.669 553.774 524.414C535.494 524.86 517.429 519.419 503.227 507.638C488.514 495.433 477.974 476.838 476.232 457.668C474.53 438.926 480.271 419.106 492.315 404.616C506.641 387.381 525.029 380.138 546.855 378.215Z"/>
	<path fill="#FEFEFE" transform="scale(0.5 0.5)" d="M546.48 410.173C556.971 409.526 567.777 412.977 576.071 419.483C584.495 426.09 589.774 436.321 590.982 446.896C592.147 457.105 588.474 467.953 582.04 475.871C574.628 484.992 564.614 489.509 553.126 490.735C543.239 491.433 533.972 489.389 525.873 483.435C517.564 477.325 510.801 467.434 509.333 457.14C507.838 446.659 510.011 436.108 516.453 427.599C524.034 417.586 534.058 411.866 546.48 410.173Z"/>
</svg>
